# xmcd
#
# Track frame offsets:
#	150
#	15674
#	36628
#	52513
#	73375
#	89344
#	104944
#	118366
#	132901
#	155974
#	175957
#
# Disc length: 2627 seconds
#
# Revision: 4
# Processed by: cddbd v1.5.2PL0 Copyright (c) Steve Scherf et al.
# Submitted via: EasyCDDAExtractor 16.0.6.1
#
DISCID=a80a410b
DTITLE=Irma Thomas - The Story f My Life
DYEAR=1997
DGENRE=Soul
TTITLE0=No Use Talkin'
TTITLE1=The Story of My Life
TTITLE2=I Count the Teardrops
TTITLE3=Cried Too Long
TTITLE4=Love Don't Get No Better Than This
TTITLE5=Hold Me While I Cry
TTITLE6=I Won't Cry for You
TTITLE7=We All Need Love
TTITLE8=Get Here
TTITLE9=Keep the Faith
TTITLE10=Dr. Feelgood
EXTD=
EXTT0=
EXTT1=
EXTT2=
EXTT3=
EXTT4=
EXTT5=
EXTT6=
EXTT7=
EXTT8=
EXTT9=
EXTT10=
PLAYORDER=
